<svg id="Layer_1" xmlns="http://www.w3.org/2000/svg" viewBox="0 0 19 26" width="19" height="26"><path fill="#FFF" d="M9.217 24.401c-1.158 0-2.1-.941-2.1-2.1v-2.366c-2.646-.848-4.652-3.146-5.061-5.958l-.052-.357-.003-.081a2.023 2.023 0 0 1 .571-1.492c.39-.404.939-.637 1.507-.637h.3c.254 0 .498.044.724.125v-6.27A4.27 4.27 0 0 1 9.367 1a4.27 4.27 0 0 1 4.265 4.265v6.271c.226-.081.469-.125.723-.125h.3c.564 0 1.112.233 1.501.64s.597.963.571 1.526c0 .005.001.124-.08.6-.47 2.703-2.459 4.917-5.029 5.748v2.378c0 1.158-.942 2.1-2.1 2.1h-.301v-.002z"/><path fill="#09D261" d="M9.367 15.668a2.765 2.765 0 0 0 2.765-2.765V5.265a2.765 2.765 0 0 0-5.529 0v7.638a2.764 2.764 0 0 0 2.764 2.765zm5.288-2.758h-.3a.64.64 0 0 0-.631.598l-.059.285a4.397 4.397 0 0 1-4.298 3.505 4.397 4.397 0 0 1-4.304-3.531l-.055-.277a.628.628 0 0 0-.629-.579h-.3a.563.563 0 0 0-.579.573l.04.278a5.894 5.894 0 0 0 5.076 4.978v3.562c0 .33.27.6.6.6h.3c.33 0 .6-.27.6-.6V18.73c2.557-.33 4.613-2.286 5.051-4.809.057-.328.061-.411.061-.411a.57.57 0 0 0-.573-.6z"/></svg>