<svg id="Layer_1" xmlns="http://www.w3.org/2000/svg" viewBox="0 0 24 24" width="24" height="24"><path fill="#8d9193" d="M21.81 10.661l-.001-.1v-.222-.107c0-.018-.009-.032-.01-.049-.002-.184-.003-.373-.008-.548-.02-.768-.065-1.348-.173-1.939a6.6 6.6 0 0 0-.624-1.87 6.24 6.24 0 0 0-1.171-1.594 6.301 6.301 0 0 0-1.614-1.159 6.722 6.722 0 0 0-1.887-.615c-.59-.106-1.174-.15-1.961-.171a95.633 95.633 0 0 0-1.945-.015h-.752c-.527 0-.91.003-1.934.015-.798.02-1.383.064-1.975.17a6.783 6.783 0 0 0-1.888.616 6.326 6.326 0 0 0-2.785 2.753 6.658 6.658 0 0 0-.623 1.868c-.107.591-.152 1.186-.173 1.941-.008.277-.012.566-.013.884l-.002.258-.001.781v.959c0 .52.001.753.003 1.047.001.311.005.6.013.878.02.755.066 1.349.172 1.938.126.687.33 1.3.624 1.871.303.59.698 1.126 1.173 1.595a6.318 6.318 0 0 0 1.614 1.159 6.786 6.786 0 0 0 2.146.656c.479.068.833.087 1.633.108l.07.002c.118.003.566-.001 1.125-.01h.021c.421-.007.902-.016 1.362-.027a6.873 6.873 0 0 0 4.487-1.811 210.877 210.877 0 0 0 2.928-2.737 6.857 6.857 0 0 0 2.097-4.528l.066-1.052.001-.668c.001-.023.003-.04.003-.063.002-.064.002-.111.002-.214zm-3.206 5.442c-.79.757-1.784 1.684-2.906 2.716a5.356 5.356 0 0 1-2.044 1.154c.051-.143.116-.276.145-.433.042-.234.06-.461.067-.74.003-.105.004-.209.005-.314l.001-.089V18.3l.003-.289c.013-.483.042-.865.107-1.22.069-.379.179-.709.336-1.016.16-.311.369-.595.621-.844.254-.252.542-.458.859-.617.314-.158.65-.268 1.037-.337a8.127 8.127 0 0 1 1.253-.106l.201.002h.064l.436-.005a4.91 4.91 0 0 0 .755-.066c.186-.034.348-.105.515-.169a5.35 5.35 0 0 1-1.455 2.47zm1.663-4.757a1.128 1.128 0 0 1-.615.859 1.304 1.304 0 0 1-.371.119 3.502 3.502 0 0 1-.52.043l-.417.005h-.052l-.218-.001c-.613.016-1.053.049-1.502.129a5.21 5.21 0 0 0-1.447.473 4.86 4.86 0 0 0-2.141 2.115 5.088 5.088 0 0 0-.479 1.434 9.376 9.376 0 0 0-.131 1.461l-.003.309v.093l-.001.09c0 .099-.002.192-.004.285-.006.208-.018.37-.043.511a1.154 1.154 0 0 1-.626.86c-.072.036-.168.063-.37.098l-.055.009a3.253 3.253 0 0 1-.393.022l-.043.001a44.49 44.49 0 0 1-1.077.01l-.072-.002c-.742-.019-1.059-.036-1.462-.093a5.923 5.923 0 0 1-.206-.033 5.27 5.27 0 0 1-1.477-.479 4.823 4.823 0 0 1-2.127-2.1 5.141 5.141 0 0 1-.482-1.453c-.09-.495-.13-1.025-.149-1.71a36.545 36.545 0 0 1-.012-.847c-.003-.292-.003-.522-.003-1.037v-.959l.001-.774.002-.256c.001-.311.005-.588.012-.853.02-.685.061-1.214.151-1.712a5.12 5.12 0 0 1 .481-1.45c.231-.449.53-.856.892-1.213.363-.36.777-.657 1.233-.886a5.26 5.26 0 0 1 1.477-.479c.503-.09 1.022-.129 1.74-.149 1.008-.012 1.385-.015 1.906-.015h.748c1.261.004 1.606.007 1.907.015.717.019 1.236.058 1.737.148a5.263 5.263 0 0 1 1.476.478 4.835 4.835 0 0 1 2.126 2.098c.228.441.385.913.482 1.453.091.499.131 1.013.15 1.712a32.258 32.258 0 0 1 .014 1.235 2.935 2.935 0 0 1-.037.436z"/></svg>