<svg id="Layer_1" xmlns="http://www.w3.org/2000/svg" viewBox="0 0 19 19" width="19" height="19"><path fill="#263238" fill-opacity=".25" d="M9.5 18.419C4.574 18.419.581 14.426.581 9.5S4.574.581 9.5.581s8.919 3.993 8.919 8.919-3.993 8.919-8.919 8.919zm2.121-5.708l-.082-2.99 1.647-1.963a1.583 1.583 0 0 0-.188-2.232l-.32-.269a1.58 1.58 0 0 0-2.231.203L8.803 7.42l-2.964.439a.282.282 0 0 0-.14.496l5.458 4.58c.186.157.47.019.464-.224zM5.62 13.994a.504.504 0 0 0 .688-.038l2.204-2.307-1.085-.91-1.889 2.571a.504.504 0 0 0 .082.684z"/></svg>